<svg width="206" height="40" viewBox="0 0 206 40" fill="none" xmlns="http://www.w3.org/2000/svg">
<g filter="url(#filter0_d_202_75)">
<path d="M76.9631 31V7.72727H91.554V10.75H80.4744V17.8409H90.7926V20.8523H80.4744V27.9773H91.6903V31H76.9631ZM115.028 7.72727V31H111.801L99.9716 13.9318H99.7557V31H96.2443V7.72727H99.4943L111.335 24.8182H111.551V7.72727H115.028ZM120.151 31V7.72727H134.741V10.75H123.662V17.8409H133.98V20.8523H123.662V27.9773H134.878V31H120.151ZM139.432 31V7.72727H147.727C149.53 7.72727 151.027 8.03788 152.216 8.65909C153.413 9.2803 154.307 10.1402 154.898 11.2386C155.489 12.3295 155.784 13.5909 155.784 15.0227C155.784 16.447 155.485 17.7008 154.886 18.7841C154.295 19.8598 153.402 20.697 152.205 21.2955C151.015 21.8939 149.519 22.1932 147.716 22.1932H141.432V19.1705H147.398C148.534 19.1705 149.458 19.0076 150.17 18.6818C150.89 18.3561 151.417 17.8826 151.75 17.2614C152.083 16.6402 152.25 15.8939 152.25 15.0227C152.25 14.1439 152.08 13.3826 151.739 12.7386C151.405 12.0947 150.879 11.6023 150.159 11.2614C149.447 10.9129 148.511 10.7386 147.352 10.7386H142.943V31H139.432ZM150.92 20.5L156.67 31H152.67L147.034 20.5H150.92ZM175.807 15.0795C175.587 14.3902 175.292 13.7727 174.92 13.2273C174.557 12.6742 174.121 12.2045 173.614 11.8182C173.106 11.4242 172.527 11.125 171.875 10.9205C171.231 10.7159 170.523 10.6136 169.75 10.6136C168.439 10.6136 167.258 10.9508 166.205 11.625C165.152 12.2992 164.318 13.2879 163.705 14.5909C163.098 15.8864 162.795 17.4735 162.795 19.3523C162.795 21.2386 163.102 22.8333 163.716 24.1364C164.33 25.4394 165.17 26.428 166.239 27.1023C167.307 27.7765 168.523 28.1136 169.886 28.1136C171.152 28.1136 172.254 27.8561 173.193 27.3409C174.14 26.8258 174.871 26.0985 175.386 25.1591C175.909 24.2121 176.17 23.0985 176.17 21.8182L177.08 21.9886H170.42V19.0909H179.568V21.7386C179.568 23.6932 179.152 25.3902 178.318 26.8295C177.492 28.2614 176.348 29.3674 174.886 30.1477C173.432 30.928 171.765 31.3182 169.886 31.3182C167.78 31.3182 165.932 30.8333 164.341 29.8636C162.758 28.8939 161.523 27.5189 160.636 25.7386C159.75 23.9508 159.307 21.8295 159.307 19.375C159.307 17.5189 159.564 15.8523 160.08 14.375C160.595 12.8977 161.318 11.6439 162.25 10.6136C163.189 9.57576 164.292 8.78409 165.557 8.23864C166.83 7.68561 168.22 7.40909 169.727 7.40909C170.985 7.40909 172.155 7.5947 173.239 7.96591C174.33 8.33712 175.299 8.86364 176.148 9.54545C177.004 10.2273 177.712 11.0379 178.273 11.9773C178.833 12.9091 179.212 13.9432 179.409 15.0795H175.807ZM181.449 7.72727H185.438L191.517 18.3068H191.767L197.847 7.72727H201.835L193.392 21.8636V31H189.892V21.8636L181.449 7.72727Z" fill="white"/>
<path d="M18.5781 13.8409C18.4569 12.7652 17.9569 11.9318 17.0781 11.3409C16.1993 10.7424 15.0933 10.4432 13.7599 10.4432C12.8054 10.4432 11.9796 10.5947 11.2827 10.8977C10.5857 11.1932 10.044 11.6023 9.65767 12.125C9.27888 12.6402 9.08949 13.2273 9.08949 13.8864C9.08949 14.4394 9.21828 14.9167 9.47585 15.3182C9.741 15.7197 10.0857 16.0568 10.5099 16.3295C10.9418 16.5947 11.4039 16.8182 11.8963 17C12.3887 17.1742 12.8622 17.3182 13.3168 17.4318L15.5895 18.0227C16.3319 18.2045 17.0933 18.4508 17.8736 18.7614C18.6539 19.072 19.3774 19.4811 20.044 19.9886C20.7107 20.4962 21.2486 21.125 21.6577 21.875C22.0743 22.625 22.2827 23.5227 22.2827 24.5682C22.2827 25.8864 21.9418 27.0568 21.2599 28.0795C20.5857 29.1023 19.6046 29.9091 18.3168 30.5C17.0365 31.0909 15.4872 31.3864 13.669 31.3864C11.9266 31.3864 10.419 31.1098 9.14631 30.5568C7.87358 30.0038 6.87737 29.2197 6.15767 28.2045C5.43797 27.1818 5.04025 25.9697 4.96449 24.5682H8.48722C8.5554 25.4091 8.82813 26.1098 9.3054 26.6705C9.79025 27.2235 10.4077 27.6364 11.1577 27.9091C11.9152 28.1742 12.7448 28.3068 13.6463 28.3068C14.6387 28.3068 15.5213 28.1515 16.294 27.8409C17.0743 27.5227 17.688 27.0833 18.1349 26.5227C18.5819 25.9545 18.8054 25.2917 18.8054 24.5341C18.8054 23.8447 18.6084 23.2803 18.2145 22.8409C17.8281 22.4015 17.3016 22.0379 16.6349 21.75C15.9759 21.4621 15.2296 21.2083 14.3963 20.9886L11.6463 20.2386C9.78267 19.7311 8.3054 18.9848 7.21449 18C6.13116 17.0152 5.58949 15.7121 5.58949 14.0909C5.58949 12.75 5.95313 11.5795 6.6804 10.5795C7.40767 9.57954 8.39252 8.80303 9.63494 8.25C10.8774 7.68939 12.2789 7.40909 13.8395 7.40909C15.4152 7.40909 16.8054 7.68561 18.0099 8.23864C19.2221 8.79167 20.1766 9.55303 20.8736 10.5227C21.5706 11.4848 21.9342 12.5909 21.9645 13.8409H18.5781ZM29.6037 20.6364V31H26.206V7.72727H29.5582V16.3864H29.7741C30.1832 15.447 30.8082 14.7008 31.6491 14.1477C32.4901 13.5947 33.5885 13.3182 34.9446 13.3182C36.1416 13.3182 37.187 13.5644 38.081 14.0568C38.9825 14.5492 39.6795 15.2841 40.1719 16.2614C40.6719 17.2311 40.9219 18.4432 40.9219 19.8977V31H37.5241V20.3068C37.5241 19.0265 37.1946 18.0341 36.5355 17.3295C35.8764 16.6174 34.9598 16.2614 33.7855 16.2614C32.9825 16.2614 32.2628 16.4318 31.6264 16.7727C30.9976 17.1136 30.5014 17.6136 30.1378 18.2727C29.7817 18.9242 29.6037 19.7121 29.6037 20.6364ZM50.5355 31.3864C49.4295 31.3864 48.4295 31.1818 47.5355 30.7727C46.6416 30.3561 45.9332 29.7538 45.4105 28.9659C44.8954 28.178 44.6378 27.2121 44.6378 26.0682C44.6378 25.0833 44.8272 24.2727 45.206 23.6364C45.5848 23 46.0961 22.4962 46.7401 22.125C47.384 21.7538 48.1037 21.4735 48.8991 21.2841C49.6946 21.0947 50.5052 20.9508 51.331 20.8523C52.3764 20.7311 53.2249 20.6326 53.8764 20.5568C54.5279 20.4735 55.0014 20.3409 55.2969 20.1591C55.5923 19.9773 55.7401 19.6818 55.7401 19.2727V19.1932C55.7401 18.2008 55.4598 17.4318 54.8991 16.8864C54.3461 16.3409 53.5204 16.0682 52.4219 16.0682C51.2779 16.0682 50.3764 16.322 49.7173 16.8295C49.0658 17.3295 48.6151 17.8864 48.3651 18.5L45.1719 17.7727C45.5507 16.7121 46.1037 15.8561 46.831 15.2045C47.5658 14.5455 48.4105 14.0682 49.3651 13.7727C50.3196 13.4697 51.3234 13.3182 52.3764 13.3182C53.0734 13.3182 53.812 13.4015 54.5923 13.5682C55.3802 13.7273 56.1151 14.0227 56.7969 14.4545C57.4863 14.8864 58.0507 15.5038 58.4901 16.3068C58.9295 17.1023 59.1491 18.1364 59.1491 19.4091V31H55.831V28.6136H55.6946C55.4749 29.053 55.1454 29.4848 54.706 29.9091C54.2666 30.3333 53.7022 30.6856 53.0128 30.9659C52.3234 31.2462 51.4976 31.3864 50.5355 31.3864ZM51.2741 28.6591C52.2135 28.6591 53.0166 28.4735 53.6832 28.1023C54.3575 27.7311 54.8688 27.2462 55.2173 26.6477C55.5734 26.0417 55.7514 25.3939 55.7514 24.7045V22.4545C55.6302 22.5758 55.3954 22.6894 55.0469 22.7955C54.706 22.8939 54.3158 22.9811 53.8764 23.0568C53.437 23.125 53.009 23.1894 52.5923 23.25C52.1757 23.303 51.8272 23.3485 51.5469 23.3864C50.8878 23.4697 50.2855 23.6098 49.7401 23.8068C49.2022 24.0038 48.7704 24.2879 48.4446 24.6591C48.1264 25.0227 47.9673 25.5076 47.9673 26.1136C47.9673 26.9545 48.2779 27.5909 48.8991 28.0227C49.5204 28.447 50.312 28.6591 51.2741 28.6591ZM63.6747 31V13.5455H66.9588V16.3182H67.1406C67.4588 15.3788 68.0194 14.6402 68.8224 14.1023C69.633 13.5568 70.5497 13.2841 71.5724 13.2841C71.7846 13.2841 72.0346 13.2917 72.3224 13.3068C72.6179 13.322 72.849 13.3409 73.0156 13.3636V16.6136C72.8793 16.5758 72.6368 16.5341 72.2884 16.4886C71.9399 16.4356 71.5914 16.4091 71.2429 16.4091C70.4399 16.4091 69.724 16.5795 69.0952 16.9205C68.474 17.2538 67.9815 17.7197 67.6179 18.3182C67.2543 18.9091 67.0724 19.5833 67.0724 20.3409V31H63.6747Z" fill="white"/>
</g>
<defs>
<filter id="filter0_d_202_75" x="0.964478" y="7.40909" width="204.871" height="31.9773" filterUnits="userSpaceOnUse" color-interpolation-filters="sRGB">
<feFlood flood-opacity="0" result="BackgroundImageFix"/>
<feColorMatrix in="SourceAlpha" type="matrix" values="0 0 0 0 0 0 0 0 0 0 0 0 0 0 0 0 0 0 127 0" result="hardAlpha"/>
<feOffset dy="4"/>
<feGaussianBlur stdDeviation="2"/>
<feComposite in2="hardAlpha" operator="out"/>
<feColorMatrix type="matrix" values="0 0 0 0 0 0 0 0 0 0 0 0 0 0 0 0 0 0 0.25 0"/>
<feBlend mode="normal" in2="BackgroundImageFix" result="effect1_dropShadow_202_75"/>
<feBlend mode="normal" in="SourceGraphic" in2="effect1_dropShadow_202_75" result="shape"/>
</filter>
</defs>
</svg>
